<svg width="38" height="38" viewBox="0 0 38 38" fill="none" xmlns="http://www.w3.org/2000/svg">
<path d="M17.4957 23.6708L14.5665 26.6C13.949 27.2175 12.9673 27.2175 12.334 26.6158C12.1598 26.4416 11.9857 26.2833 11.8115 26.1091C10.1807 24.4625 8.70817 22.7366 7.394 20.9316C6.09567 19.1266 5.05067 17.3216 4.29067 15.5325C3.5465 13.7275 3.1665 12.0016 3.1665 10.355C3.1665 9.27829 3.3565 8.24913 3.7365 7.29913C4.1165 6.33329 4.71817 5.44663 5.55734 4.65496C6.57067 3.65746 7.679 3.16663 8.85067 3.16663C9.294 3.16663 9.73734 3.26163 10.1332 3.45163C10.5448 3.64163 10.909 3.92663 11.194 4.33829L14.8673 9.51579C15.1523 9.91163 15.3582 10.2758 15.5007 10.6241C15.6432 10.9566 15.7223 11.2891 15.7223 11.59C15.7223 11.97 15.6115 12.35 15.3898 12.7141C15.184 13.0783 14.8832 13.4583 14.5032 13.8383L13.2998 15.0891C13.1257 15.2633 13.0465 15.4691 13.0465 15.7225C13.0465 15.8491 13.0623 15.96 13.094 16.0866C13.1415 16.2133 13.189 16.3083 13.2207 16.4033C13.5057 16.9258 13.9965 17.6066 14.6932 18.43C15.4057 19.2533 16.1657 20.0925 16.989 20.9316C17.1473 21.09 17.3215 21.2483 17.4798 21.4066C18.1132 22.0241 18.129 23.0375 17.4957 23.6708Z" fill="#FFAA00"/>
<path d="M34.786 29.0225C34.786 29.4658 34.7069 29.925 34.5485 30.3683C34.501 30.495 34.4535 30.6216 34.3902 30.7483C34.121 31.3183 33.7727 31.8566 33.3135 32.3633C32.5377 33.2183 31.6827 33.8358 30.7169 34.2316C30.701 34.2316 30.6852 34.2475 30.6694 34.2475C29.7352 34.6275 28.7219 34.8333 27.6294 34.8333C26.0144 34.8333 24.2885 34.4533 22.4677 33.6775C20.6469 32.9016 18.826 31.8566 17.021 30.5425C16.4035 30.0833 15.786 29.6241 15.2002 29.1333L20.3777 23.9558C20.821 24.2883 21.2169 24.5416 21.5494 24.7158C21.6285 24.7475 21.7235 24.795 21.8344 24.8425C21.961 24.89 22.0877 24.9058 22.2302 24.9058C22.4994 24.9058 22.7052 24.8108 22.8794 24.6366L24.0827 23.4491C24.4785 23.0533 24.8585 22.7525 25.2227 22.5625C25.5869 22.3408 25.951 22.23 26.3469 22.23C26.6477 22.23 26.9644 22.2933 27.3127 22.4358C27.661 22.5783 28.0252 22.7841 28.421 23.0533L33.6619 26.7741C34.0735 27.0591 34.3585 27.3916 34.5327 27.7875C34.691 28.1833 34.786 28.5791 34.786 29.0225Z" fill="#FFAA00"/>
</svg>
