<svg width="38" height="38" viewBox="0 0 38 38" fill="none" xmlns="http://www.w3.org/2000/svg">
<path d="M32.6482 13.3792C30.9857 6.06421 24.6049 2.77087 18.9999 2.77087C18.9999 2.77087 18.9999 2.77087 18.9841 2.77087C13.3949 2.77087 6.99824 6.04837 5.33574 13.3634C3.48324 21.5334 8.48657 28.4525 13.0149 32.8067C14.6932 34.4217 16.8466 35.2292 18.9999 35.2292C21.1532 35.2292 23.3066 34.4217 24.9691 32.8067C29.4974 28.4525 34.5007 21.5492 32.6482 13.3792ZM18.9999 21.3117C16.2449 21.3117 14.0124 19.0792 14.0124 16.3242C14.0124 13.5692 16.2449 11.3367 18.9999 11.3367C21.7549 11.3367 23.9874 13.5692 23.9874 16.3242C23.9874 19.0792 21.7549 21.3117 18.9999 21.3117Z" fill="#FFAA00"/>
</svg>
