<svg width="40" height="40" viewBox="0 0 40 40" fill="none" xmlns="http://www.w3.org/2000/svg">
<path d="M13.4833 19.3833H5.66659C5.79992 11.6 7.33325 10.3167 12.1166 7.48334C12.6666 7.15 12.8499 6.45 12.5166 5.88334C12.1999 5.33334 11.4833 5.15 10.9333 5.48334C5.29992 8.81667 3.33325 10.85 3.33325 20.5333V29.5167C3.33325 32.3667 5.64992 34.6667 8.48325 34.6667H13.4833C16.4166 34.6667 18.6333 32.45 18.6333 29.5167V24.5167C18.6333 21.6 16.4166 19.3833 13.4833 19.3833Z" fill="white"/>
<path d="M31.5168 19.3833H23.7001C23.8334 11.6 25.3668 10.3167 30.1501 7.48334C30.7001 7.15 30.8834 6.45 30.5501 5.88334C30.2168 5.33334 29.5168 5.15 28.9501 5.48334C23.3168 8.81667 21.3501 10.85 21.3501 20.55V29.5333C21.3501 32.3833 23.6668 34.6833 26.5001 34.6833H31.5001C34.4334 34.6833 36.6501 32.4667 36.6501 29.5333V24.5333C36.6668 21.6 34.4501 19.3833 31.5168 19.3833Z" fill="white"/>
</svg>
