<svg width="38" height="38" viewBox="0 0 38 38" fill="none" xmlns="http://www.w3.org/2000/svg">
<path d="M26.9165 5.54163H11.0832C6.33317 5.54163 3.1665 7.91663 3.1665 13.4583V24.5416C3.1665 30.0833 6.33317 32.4583 11.0832 32.4583H26.9165C31.6665 32.4583 34.8332 30.0833 34.8332 24.5416V13.4583C34.8332 7.91663 31.6665 5.54163 26.9165 5.54163ZM27.6607 15.1841L22.7048 19.1425C21.6598 19.9816 20.3298 20.3933 18.9998 20.3933C17.6698 20.3933 16.324 19.9816 15.2948 19.1425L10.339 15.1841C9.83234 14.7725 9.75317 14.0125 10.149 13.5058C10.5607 12.9991 11.3048 12.9041 11.8115 13.3158L16.7673 17.2741C17.9707 18.24 20.0132 18.24 21.2165 17.2741L26.1723 13.3158C26.679 12.9041 27.439 12.9833 27.8348 13.5058C28.2465 14.0125 28.1673 14.7725 27.6607 15.1841Z" fill="#FFAA00"/>
</svg>
