<svg width="38" height="37" viewBox="0 0 38 37" fill="none" xmlns="http://www.w3.org/2000/svg">
<path d="M23.6403 35.073H14.3903C6.01905 35.073 2.44238 31.4963 2.44238 23.125V13.875C2.44238 5.50379 6.01905 1.92712 14.3903 1.92712H23.6403C32.0115 1.92712 35.5882 5.50379 35.5882 13.875V23.125C35.5882 31.4963 32.0115 35.073 23.6403 35.073ZM14.3903 4.23962C7.28322 4.23962 4.75488 6.76796 4.75488 13.875V23.125C4.75488 30.2321 7.28322 32.7605 14.3903 32.7605H23.6403C30.7474 32.7605 33.2757 30.2321 33.2757 23.125V13.875C33.2757 6.76796 30.7474 4.23962 23.6403 4.23962H14.3903Z" fill="white" stroke="white" stroke-width="0.5"/>
<path d="M19.0155 25.052C15.408 25.052 12.4634 22.1075 12.4634 18.5C12.4634 14.8925 15.408 11.9479 19.0155 11.9479C22.623 11.9479 25.5675 14.8925 25.5675 18.5C25.5675 22.1075 22.623 25.052 19.0155 25.052ZM19.0155 14.2604C16.6721 14.2604 14.7759 16.1566 14.7759 18.5C14.7759 20.8433 16.6721 22.7395 19.0155 22.7395C21.3588 22.7395 23.255 20.8433 23.255 18.5C23.255 16.1566 21.3588 14.2604 19.0155 14.2604Z" fill="white" stroke="white" stroke-width="0.5"/>
<path d="M26.7238 11.5625C26.5234 11.5625 26.323 11.5162 26.138 11.4391C25.953 11.3621 25.7834 11.2541 25.6292 11.1154C25.4905 10.9612 25.3671 10.7916 25.29 10.6066C25.213 10.4216 25.1821 10.2212 25.1821 10.0208C25.1821 9.82039 25.213 9.61997 25.29 9.43497C25.3825 9.23456 25.4905 9.08039 25.6292 8.92622C25.7063 8.86456 25.7834 8.78747 25.8605 8.74122C25.953 8.67956 26.0455 8.63331 26.138 8.60247C26.2305 8.55622 26.323 8.52539 26.4309 8.50997C26.9242 8.40206 27.4484 8.57164 27.8184 8.92622C27.9571 9.08039 28.065 9.23456 28.1421 9.43497C28.2192 9.61997 28.2655 9.82039 28.2655 10.0208C28.2655 10.2212 28.2192 10.4216 28.1421 10.6066C28.065 10.7916 27.9571 10.9612 27.8184 11.1154C27.6642 11.2541 27.4946 11.3621 27.3096 11.4391C27.1246 11.5162 26.9242 11.5625 26.7238 11.5625Z" fill="white" stroke="white" stroke-width="0.5"/>
</svg>
