<svg width="20" height="17" viewBox="0 0 20 17" fill="none" xmlns="http://www.w3.org/2000/svg">
<path d="M3.8039 15.6948C1.24392 9.80154 9.09212 3.185 14.3589 7.05897C16.8651 8.90645 18.684 13.8152 16.0989 16.3071C15.9496 16.4463 15.7836 16.5665 15.6048 16.6651C13.4566 17.8717 11.9063 15.4514 9.87622 15.1685C8.02159 14.9358 5.03555 18.5162 3.8039 15.6948Z" fill="#2F3134"/>
<path d="M2.78714 5.10761C3.04712 5.22186 3.27512 5.39813 3.45114 5.62098C3.62717 5.84382 3.74586 6.10644 3.79681 6.38581C4.18349 8.35144 1.4266 10.4961 0.24507 8.176C-0.610641 6.51112 0.90386 4.25906 2.78714 5.10761Z" fill="#2F3134"/>
<path d="M7.68856 1.26948C7.86855 1.53867 7.97938 1.8481 8.01123 2.17035C8.04308 2.49261 7.99497 2.81774 7.87116 3.11696C7.02977 5.24013 3.06986 5.60174 3.35988 2.65509C3.55322 0.524762 6.38888 -0.703308 7.68856 1.26948Z" fill="#2F3134"/>
<path d="M14.7562 2.40443C14.7276 2.72709 14.6199 3.03771 14.4425 3.30876C14.2651 3.57981 14.0236 3.80292 13.7394 3.95831C11.7559 5.08971 8.44045 2.8842 10.5171 0.775354C12.0065 -0.749889 14.9854 0.0700197 14.7562 2.40443Z" fill="#2F3134"/>
<path d="M19.3928 6.34287C19.2264 6.57342 19.0057 6.75937 18.7503 6.88427C18.4949 7.00918 18.2126 7.06917 17.9285 7.05895C15.9234 7.01241 14.4197 3.86167 16.9367 3.20288C18.752 2.72311 20.6245 4.68516 19.3928 6.34287Z" fill="#2F3134"/>
</svg>
