<svg width="33" height="33" viewBox="0 0 33 33" fill="none" xmlns="http://www.w3.org/2000/svg">
<path d="M19.9851 32.533C17.9934 32.533 15.1745 31.132 12.9465 24.4309L11.7311 20.785L8.08521 19.5697C1.40099 17.3416 0 14.5228 0 12.531C0 10.5561 1.40099 7.72039 8.08521 5.47544L22.4158 0.698585C25.9942 -0.499848 28.9818 -0.145382 30.8217 1.67759C32.6615 3.50056 33.016 6.50508 31.8176 10.0835L27.0407 24.4141C24.7958 31.132 21.9769 32.533 19.9851 32.533ZM8.87854 7.88919C4.18608 9.45897 2.51502 11.3157 2.51502 12.531C2.51502 13.7463 4.18608 15.603 8.87854 17.1559L13.1321 18.5738C13.5035 18.692 13.8073 18.9958 13.9255 19.3671L15.3433 23.6207C16.8962 28.3132 18.7698 29.9842 19.9851 29.9842C21.2005 29.9842 23.0572 28.3132 24.627 23.6207L29.4038 9.29017C30.2647 6.69075 30.1128 4.56396 29.0156 3.4668C27.9184 2.36964 25.7916 2.23461 23.2091 3.09545L8.87854 7.88919Z" fill="white"/>
<path d="M13.0484 20.3293C12.7276 20.3293 12.4069 20.2112 12.1537 19.958C11.6642 19.4685 11.6642 18.6583 12.1537 18.1688L18.1966 12.1091C18.6861 11.6196 19.4963 11.6196 19.9858 12.1091C20.4753 12.5986 20.4753 13.4088 19.9858 13.8983L13.943 19.958C13.7066 20.2112 13.3691 20.3293 13.0484 20.3293Z" fill="white"/>
</svg>
